<?xml version="1.0" encoding="utf-8"?>
<!-- Generator: Adobe Illustrator 24.0.0, SVG Export Plug-In . SVG Version: 6.00 Build 0)  -->
<svg version="1.1" id="Layer_1" xmlns="http://www.w3.org/2000/svg" xmlns:xlink="http://www.w3.org/1999/xlink" x="0px" y="0px"
	 viewBox="0 0 500 500" style="enable-background:new 0 0 500 500;" xml:space="preserve">
<style type="text/css">
	.st0{fill:#95D96C;}
	.st1{fill:#00A4FF;}
	.st2{fill:#FFFFFF;}
</style>
<rect x="-6.93" y="0.98" width="547.85" height="499.02"/>
<g>
	<g>
		<path class="st0" d="M201.88,211.56l0.07-0.1l0.09-0.1l0.14-0.18c0.71-0.95,1.49-1.91,2.42-2.84l0.02-0.05l0.02-0.03
			c0.14-0.13,0.28-0.28,0.45-0.45c-4.65-2.38-10.22-3.56-16.73-3.56h-9.81c-0.73,0-1.37,0.28-1.9,0.85
			c-0.52,0.55-0.78,1.23-0.78,2.01c0,0.78,0.26,1.41,0.78,1.91c0.52,0.5,1.16,0.75,1.9,0.75h9.81c5.07,0,9.43,0.78,13.11,2.36
			C201.6,211.93,201.74,211.76,201.88,211.56z"/>
		<path class="st0" d="M190.89,162.63c3.91,0.63,7.44,1.78,10.59,3.51c3.18,1.73,5.71,4.22,7.61,7.46c1.9,3.24,2.84,7.48,2.84,12.73
			c0,0.78-0.02,1.56-0.09,2.26c-0.05,0.73-0.12,1.43-0.24,2.11c-0.21,0.78-0.09,1.46,0.33,2.01c0.43,0.55,1,0.95,1.73,1.18
			c0.73,0,1.4-0.18,1.99-0.5c0.57-0.35,0.9-0.95,1.02-1.86c0.31-1.68,0.47-3.41,0.47-5.2c0-6.13-1.09-11.15-3.25-15.06
			c-2.16-3.92-5.02-6.98-8.6-9.21c-3.6-2.23-7.68-3.77-12.28-4.62c-4.57-0.83-9.29-1.26-14.15-1.26H152.3
			c-0.73,0-1.35,0.25-1.9,0.75c-0.52,0.5-0.78,1.15-0.78,1.93v111.38c0,0.9,0.26,1.58,0.78,2.08c0.55,0.5,1.16,0.75,1.9,0.75
			c1.71,0,2.54-0.93,2.54-2.84V161.73h24.03C182.99,161.73,187,162.03,190.89,162.63z"/>
		<path class="st0" d="M178.56,218.84c-1.68,0-2.54,0.88-2.54,2.66c0,0.8,0.24,1.46,0.71,2.03c0.47,0.55,1.09,0.83,1.83,0.83h6.33
			c2.54,0,4.81,0.2,6.87,0.58c1.42,0.28,2.73,0.73,3.89,1.38c0.17-1.08,0.4-2.16,0.69-3.21l0.02-0.13l0.05-0.1v-0.03
			c0.02-0.1,0.07-0.2,0.09-0.3c0.14-0.55,0.31-1.08,0.5-1.61c-1-0.48-2.06-0.83-3.18-1.1c-2.7-0.68-5.66-1-8.94-1H178.56z"/>
		<polygon class="st0" points="213.45,246.86 213.46,246.87 213.45,246.87 		"/>
		<path class="st0" d="M266.73,256.01l0.05,0.03l-0.05,0.55c0,1.56,1.21,2.81,2.68,2.81c1.47,0,2.65-1.26,2.68-2.79l-0.07-0.28
			v-0.55h0.05v-23.4c0-3.94-1.33-7.33-3.91-10.07c-2.44-2.59-5.48-3.94-9.05-4.07l-0.38-0.08h-31.57c-3.72,0-6.87,1.41-9.48,4.14
			l-0.02,0.03c-1.8,1.91-2.99,4.09-3.53,6.53c-0.26,1.1-0.38,2.23-0.38,3.44c0,0.3,0,0.58,0.05,0.85c0.07,1.93,0.5,3.74,1.26,5.37
			c0.1,0.22,0.25,0.43,0.36,0.65c0,0.02,0,0.04,0,0.05c-0.05,3.56-0.47,6.83-1.26,9.79v0.03c-0.02,0.08-0.05,0.18-0.07,0.25
			c-0.55,1.91-1.23,3.69-2.06,5.35c-0.02,0.08-0.07,0.13-0.09,0.2c-0.9,1.78-1.99,3.39-3.22,4.84c-4.48,5.25-11.05,7.86-19.7,7.86
			h-22.61c-0.73,0-1.33,0.28-1.8,0.85c-0.5,0.55-0.73,1.23-0.73,2.01c0,1.78,0.85,2.66,2.54,2.66h22.61
			c10.12,0,17.92-3.14,23.42-9.46c1.59-1.83,2.92-3.82,4.03-5.97c0.02-0.05,0.05-0.08,0.07-0.13c0.85-1.63,1.54-3.36,2.13-5.2
			c0.02-0.05,0.02-0.1,0.05-0.15c0.73-2.33,1.28-4.87,1.59-7.58c0,0,0,0,0-0.01c1.4,0.9,2.91,1.53,4.55,1.79
			c0.76,0.15,1.52,0.23,2.32,0.23h27.45c1.52,0,2.73-1.28,2.73-2.89c0-1.58-1.21-2.89-2.73-2.89h-27.45c-0.64,0-1.26-0.08-1.85-0.2
			c-1.49-0.35-2.8-1.13-3.91-2.31c-0.45-0.48-0.83-0.98-1.16-1.53c-0.64-1.05-1.02-2.28-1.14-3.61c-0.02-0.3-0.05-0.6-0.05-0.93
			c0-1.08,0.17-2.06,0.47-2.99c0.4-1.13,1.02-2.13,1.87-3.04c1.56-1.61,3.51-2.41,5.76-2.41h30.03l0.47,0.13h1
			c2.25,0,4.17,0.83,5.74,2.49c1.56,1.63,2.35,3.61,2.35,5.9V256.01z"/>
		<path class="st1" d="M271.95,267.57c-0.56-0.57-1.32-0.93-2.15-0.93c-0.87,0-1.65,0.37-2.22,0.97c-0.46,0.48-0.72,1.14-0.82,1.84
			c-0.03,0.17-0.1,0.33-0.1,0.51c0,0.72,0.26,1.36,0.63,1.9c0.57,0.84,1.46,1.42,2.51,1.42c1.73,0,3.14-1.49,3.14-3.32
			C272.93,269.02,272.55,268.18,271.95,267.57z"/>
		<path class="st0" d="M255,254.23h-0.38h-27.09c-1.52,0-2.96-0.15-4.34-0.45l-0.07,0.15v0.03c-0.22,0.67-0.47,1.34-0.72,2.01
			c-0.05,0.13-0.1,0.27-0.15,0.4c-0.36,0.98-0.78,1.96-1.26,2.91c1.97,0.5,4.03,0.73,6.16,0.73h0.38h26.64h0.38V260l0.05,0.01h0.1
			c0.04,0,0.06-0.02,0.1-0.02l0.18,0.02h0.09c1.49,0,2.73-1.31,2.73-2.89C257.8,255.54,256.59,254.23,255,254.23z"/>
		<polygon class="st0" points="282.74,261.1 282.74,261.11 282.74,261.11 		"/>
		<polygon class="st1" points="287.89,267.43 287.89,267.43 287.89,267.43 		"/>
		<path class="st0" d="M288.71,202.92c1.26-0.35,2.11-0.88,2.54-1.61c0.43-0.7,0.47-1.53,0.14-2.41c-0.31-1.36-1.21-2.01-2.68-2.01
			c-0.43,0-0.73,0.05-0.95,0.15c-0.73,0.23-1.26,0.7-1.59,1.43c-0.31,0.73-0.36,1.53-0.14,2.44
			C286.55,202.24,287.45,202.92,288.71,202.92z"/>
		<path class="st0" d="M286.81,218.89c0.43,0.98,0.81,1.98,1.11,3.01c0.97-1.88,2.16-3.56,3.56-5c4.57-4.74,11.31-7.13,20.15-7.13
			h9.81c0.73,0,1.37-0.25,1.9-0.75c0.52-0.5,0.78-1.13,0.78-1.91c0-0.78-0.26-1.46-0.78-2.01c-0.52-0.58-1.16-0.85-1.9-0.85h-9.81
			c-10.22,0-18.16,2.91-23.8,8.71c-0.85,0.88-1.66,1.83-2.35,2.84L286.81,218.89z"/>
		<path class="st0" d="M335.45,268.41c-0.47-0.58-1.09-0.85-1.83-0.85h-22.61c-8.65,0-15.22-2.61-19.7-7.86
			c-0.69-0.8-1.3-1.66-1.85-2.54c-2.7-4.09-4.27-9.14-4.74-15.09c-0.09-1.23-0.14-2.51-0.14-3.82c0-1.31,0.05-2.56,0.14-3.77v-2.11
			c0-4.14-0.73-7.96-2.23-11.42c-0.76-1.83-1.75-3.59-2.96-5.22c-1.49-2.11-3.34-4.04-5.52-5.8c-3.86-3.11-9.01-4.87-14.91-5.1
			l-0.38-0.1h-31.57c-4.69,0-8.96,1.18-12.8,3.51c-1.4,0.88-2.73,1.88-4.01,3.04l-0.19,0.15c-0.47,0.43-0.95,0.9-1.42,1.38
			c-0.76,0.78-1.42,1.58-2.04,2.41l-0.14,0.18c-0.95,1.28-1.78,2.61-2.49,3.99c-0.02,0.05-0.05,0.1-0.07,0.15
			c-0.81,1.58-1.42,3.24-1.87,4.97l-0.09,0.3c-0.57,2.06-0.83,4.24-0.9,6.53l-0.02-0.1v0.78c0,0.08-0.02,0.18-0.02,0.28
			c0,0.2,0,0.4,0.02,0.6v9.14v2.06c-0.76,10.07-14.6,8.51-14.6,8.51c-0.52,0.03-1.07,0.03-1.61,0.03h-15.98v-76.69h13.44
			c4.22,0,7.75,0.83,10.59,2.51c2.84,1.66,4.27,4.97,4.27,9.87c0,2.46-0.36,4.54-1.09,6.2c-0.33,0.68-0.36,1.38-0.09,2.11
			c0.26,0.73,0.71,1.26,1.35,1.58c0.21,0.13,0.57,0.18,1.11,0.18c0.83,0,1.52-0.4,2.04-1.18c0.55-0.78,0.95-1.73,1.28-2.84
			c0.31-1.13,0.5-2.23,0.55-3.36c0.05-1.1,0.07-2.01,0.07-2.69c0-1.66-0.19-3.54-0.62-5.6c-0.43-2.06-1.35-4.02-2.77-5.87
			c-1.42-1.83-3.46-3.36-6.09-4.59c-2.63-1.23-6.16-1.83-10.59-1.83h-16.14c-1.4,0-2.51,1.18-2.51,2.66v82.24
			c0,1.91,0.83,2.86,2.54,2.86h18.65c3.27,0,6.23-0.23,8.94-0.68c2.68-0.45,5-1.36,6.94-2.76c0.47-0.35,0.92-0.7,1.35-1.1
			c1.33-1.26,2.39-2.81,3.25-4.67c0.12-0.25,0.24-0.53,0.33-0.8l0.14-0.35c0.14-0.45,0.28-0.9,0.4-1.38
			c0.05-0.18,0.1-0.38,0.12-0.58c0.05-0.15,0.07-0.3,0.12-0.45v-0.03c0.14-0.73,0.26-1.51,0.36-2.31v-15.34
			c0.19-0.88,0.45-1.76,0.71-2.61c0.12-0.35,0.24-0.68,0.36-1.03c0.64-1.56,1.45-3.06,2.44-4.47l0.19-0.25
			c0.57-0.83,1.18-1.61,1.9-2.36c0.5-0.53,1-1.03,1.52-1.51l0.24-0.18c1.26-1.1,2.58-2.01,4.01-2.71c2.7-1.41,5.71-2.11,8.96-2.11
			h31.5c5.67,0,10.6,2.16,14.65,6.45c1.49,1.58,2.73,3.26,3.67,5.07c1.61,3.09,2.44,6.53,2.44,10.27l0.19,0.75
			c0.02-0.23,0.06-0.46,0.08-0.69c-0.12,1.12-0.22,2.26-0.27,3.45v4.87c0.31,7.48,2.09,13.83,5.31,19.03
			c0.85,1.38,1.82,2.66,2.87,3.89c0.59,0.68,1.23,1.33,1.87,1.93c5.36,5.05,12.51,7.53,21.55,7.53h22.61c1.68,0,2.54-0.88,2.54-2.66
			C336.16,269.64,335.92,268.97,335.45,268.41z"/>
		<path class="st0" d="M333.76,170.44h-16.12c-4.43,0-7.96,0.6-10.59,1.83c-2.63,1.23-4.67,2.76-6.09,4.59
			c-1.42,1.86-2.35,3.82-2.77,5.87c-0.4,2.06-0.62,3.94-0.62,5.6c0,0.68,0.02,1.58,0.07,2.69c0.05,1.13,0.24,2.23,0.55,3.36
			c0.33,1.1,0.73,2.06,1.28,2.84c0.52,0.78,1.21,1.18,2.04,1.18c0.55,0,0.9-0.05,1.11-0.18c0.64-0.33,1.09-0.85,1.35-1.58
			c0.26-0.73,0.24-1.43-0.09-2.11c-0.73-1.66-1.09-3.74-1.09-6.2c0-4.9,1.42-8.21,4.27-9.87c2.84-1.68,6.38-2.51,10.59-2.51h13.44
			v76.69h-15.98c-2.54,0-4.84-0.1-6.94-0.33c-2.11-0.23-3.91-0.78-5.38-1.68c-1.49-0.88-2.61-2.23-3.41-4.02
			c-0.78-1.78-1.18-4.24-1.18-7.36c0-3.14,0.4-5.65,1.18-7.56c0.81-1.88,1.97-3.39,3.48-4.52c1.54-1.1,3.32-1.86,5.38-2.26
			c2.06-0.38,4.34-0.58,6.87-0.58h6.33c0.73,0,1.35-0.28,1.82-0.83c0.47-0.58,0.71-1.23,0.71-2.03c0-1.78-0.85-2.66-2.54-2.66h-6.33
			c-3.27,0-6.23,0.33-8.94,1c-2.68,0.65-5,1.81-6.94,3.41c-1.97,1.63-3.48,3.72-4.6,6.3c-1.11,2.56-1.66,5.8-1.66,9.71
			c0,4.02,0.55,7.25,1.66,9.71c1.11,2.46,2.63,4.37,4.6,5.77c1.94,1.41,4.27,2.31,6.94,2.76c2.7,0.45,5.66,0.68,8.94,0.68h18.65
			c1.71,0,2.54-0.95,2.54-2.86V173.1C336.3,171.32,335.47,170.44,333.76,170.44z"/>
		<path class="st0" d="M349.6,156.93c-0.55-0.5-1.16-0.75-1.9-0.75h-26.57c-4.86,0-9.58,0.43-14.15,1.26
			c-4.6,0.85-8.67,2.38-12.28,4.62c-3.58,2.23-6.45,5.3-8.6,9.21c-2.16,3.92-3.25,8.94-3.25,15.06c0,1.78,0.17,3.51,0.47,5.2
			c0.12,0.9,0.45,1.51,1.02,1.86c0.59,0.33,1.26,0.5,1.99,0.5c0.73-0.23,1.33-0.63,1.73-1.18c0.43-0.55,0.55-1.23,0.33-2.01
			c-0.12-0.68-0.19-1.38-0.24-2.11c-0.07-0.7-0.09-1.48-0.09-2.26c0-5.25,0.95-9.49,2.84-12.73c1.9-3.24,4.43-5.72,7.61-7.46
			c3.15-1.73,6.68-2.89,10.59-3.51c3.89-0.6,7.89-0.9,12.02-0.9h24.03v108.52c0,1.91,0.83,2.84,2.54,2.84c0.73,0,1.35-0.25,1.9-0.75
			c0.52-0.5,0.78-1.18,0.78-2.08V158.87C350.38,158.09,350.12,157.43,349.6,156.93z"/>
		<path class="st0" d="M279.41,254.03v15.69h0.02l-0.05,0.55c0,1.56,1.21,2.81,2.68,2.81s2.65-1.26,2.63-2.99v-0.53h0.02v-5.67
			c-0.71-0.88-1.37-1.81-1.99-2.79C281.38,258.93,280.27,256.57,279.41,254.03z"/>
	</g>
	<g>
		<g>
			<g>
				<g>
					<path class="st2" d="M155.46,331.4h6.89c0.67,0,1.25,0.25,1.72,0.75c0.47,0.5,0.71,1.1,0.71,1.8v9.87h-2.56v-4h-6.65v4h-2.52
						v-9.87c0-0.71,0.23-1.32,0.7-1.81C154.22,331.65,154.79,331.4,155.46,331.4z M155.57,337.13h6.65v-3.04h-6.65V337.13z"/>
					<path class="st2" d="M171.08,331.4v9.73h6.65v-9.73h2.56v9.87c0,0.7-0.24,1.3-0.71,1.8c-0.47,0.5-1.04,0.75-1.7,0.75h-6.91
						c-0.67,0-1.24-0.25-1.71-0.74c-0.47-0.49-0.7-1.1-0.7-1.81v-9.87H171.08z"/>
					<path class="st2" d="M183.44,331.4h11.73v2.69h-4.59v9.73h-2.54v-9.73h-4.59V331.4z"/>
					<path class="st2" d="M200.72,331.4h6.91c0.66,0,1.23,0.25,1.7,0.75c0.47,0.5,0.71,1.1,0.71,1.8v7.31c0,0.7-0.24,1.3-0.71,1.8
						c-0.47,0.5-1.04,0.75-1.7,0.75h-6.91c-0.67,0-1.24-0.25-1.71-0.74c-0.47-0.49-0.7-1.1-0.7-1.81v-7.31
						c0-0.71,0.23-1.32,0.7-1.81C199.48,331.65,200.05,331.4,200.72,331.4z M200.84,334.09v7.04h6.65v-7.04H200.84z"/>
					<path class="st2" d="M220.36,336.42l3.96-5.02h2.62v12.42h-2.54v-8.33l-4.04,5.11l-4.06-5.09v8.31h-2.52V331.4h2.61
						L220.36,336.42z"/>
					<path class="st2" d="M233.3,331.4h6.89c0.67,0,1.25,0.25,1.72,0.75c0.47,0.5,0.71,1.1,0.71,1.8v9.87h-2.56v-4h-6.65v4h-2.52
						v-9.87c0-0.71,0.23-1.32,0.7-1.81C232.05,331.65,232.62,331.4,233.3,331.4z M233.41,337.13h6.65v-3.04h-6.65V337.13z"/>
					<path class="st2" d="M245.84,331.4h11.73v2.69h-4.59v9.73h-2.54v-9.73h-4.59V331.4z"/>
					<path class="st2" d="M260.76,343.82V331.4h2.54v12.42H260.76z"/>
					<path class="st2" d="M277.97,334.09h-9.17v7.04h9.17v2.69h-9.28c-0.67,0-1.24-0.25-1.71-0.74c-0.47-0.49-0.7-1.1-0.7-1.81
						v-7.31c0-0.71,0.23-1.32,0.7-1.81c0.47-0.5,1.04-0.74,1.71-0.74h9.28V334.09z"/>
					<path class="st2" d="M288.85,331.4h9.3c0.67,0,1.24,0.25,1.72,0.75c0.47,0.5,0.71,1.1,0.71,1.8v7.31c0,0.7-0.24,1.3-0.71,1.8
						c-0.47,0.5-1.05,0.75-1.72,0.75h-9.3V331.4z M291.38,334.09v7.04h6.64v-7.04H291.38z"/>
					<path class="st2" d="M306.74,331.4h6.91c0.66,0,1.23,0.25,1.7,0.75c0.47,0.5,0.71,1.1,0.71,1.8v7.31c0,0.7-0.24,1.3-0.71,1.8
						c-0.47,0.5-1.04,0.75-1.7,0.75h-6.91c-0.67,0-1.24-0.25-1.71-0.74c-0.47-0.49-0.7-1.1-0.7-1.81v-7.31
						c0-0.71,0.23-1.32,0.7-1.81C305.49,331.65,306.06,331.4,306.74,331.4z M306.85,334.09v7.04h6.65v-7.04H306.85z"/>
					<path class="st2" d="M322.18,331.4h6.91c0.66,0,1.23,0.25,1.7,0.75c0.47,0.5,0.71,1.1,0.71,1.8v7.31c0,0.7-0.24,1.3-0.71,1.8
						c-0.47,0.5-1.04,0.75-1.7,0.75h-6.91c-0.67,0-1.24-0.25-1.71-0.74c-0.47-0.49-0.7-1.1-0.7-1.81v-7.31
						c0-0.71,0.23-1.32,0.7-1.81C320.93,331.65,321.5,331.4,322.18,331.4z M322.29,334.09v7.04h6.65v-7.04H322.29z"/>
					<path class="st2" d="M346.95,333.97v3.21c0,0.7-0.24,1.3-0.72,1.8c-0.48,0.5-1.05,0.75-1.71,0.75h-0.11l2.54,3.17v0.91h-2.61
						l-3.24-4.09l-3.36,0.02c0.03,0,0.05,0.03,0.05,0.1c-0.02,0-0.04-0.01-0.05-0.02v3.98h-2.52v-12.4h9.3
						c0.66,0,1.23,0.25,1.71,0.75C346.71,332.67,346.95,333.27,346.95,333.97z M337.75,334.09v2.95h6.65v-2.95H337.75z"/>
				</g>
			</g>
		</g>
		<g>
			<g>
				<g>
					<path class="st2" d="M145.3,305.8c0,0.64-0.07,1.24-0.25,1.73c0.71,0.94,1.24,2.26,1.24,3.54v5.6c0,3.09-2.38,5.57-5.29,5.57
						h-20.28v-27.08h19.32c2.88,0,5.26,2.48,5.26,5.57V305.8z M126.23,305.53h13.5v-4.51h-13.5V305.53z M126.23,316.36h14.49v-4.96
						h-14.49V316.36z"/>
					<path class="st2" d="M170.92,305.87v16.36h-15.73c-2.84,0-5.15-2.48-5.15-5.45v-8.35h15.45v-2.26h-15.45v-5.76h15.73
						C168.61,300.42,170.92,302.9,170.92,305.87z M165.48,313.47h-10.02v3.01h10.02V313.47z"/>
					<path class="st2" d="M199.52,305.8c0,0.64-0.07,1.24-0.25,1.73c0.71,0.94,1.24,2.26,1.24,3.54v5.6c0,3.09-2.38,5.57-5.29,5.57
						h-20.28v-27.08h19.32c2.88,0,5.26,2.48,5.26,5.57V305.8z M180.44,305.53h13.5v-4.51h-13.5V305.53z M180.44,316.36h14.49v-4.96
						h-14.49V316.36z"/>
				</g>
			</g>
			<g>
				<g>
					<path class="st2" d="M220.96,295.16h15.06c1.47,0,2.72,0.55,3.76,1.64c1.03,1.09,1.55,2.41,1.55,3.94v21.57h-5.59v-8.75h-14.53
						v8.75h-5.52v-21.57c0-1.56,0.51-2.88,1.53-3.96C218.24,295.7,219.49,295.16,220.96,295.16z M221.21,307.68h14.53v-6.64h-14.53
						V307.68z"/>
					<path class="st2" d="M245.95,293.24h5.48v23.3h4.17v5.77h-4.49c-1.4,0-2.61-0.54-3.63-1.62c-1.02-1.08-1.53-2.36-1.53-3.85
						V293.24z"/>
					<path class="st2" d="M284.26,300.74v2.53h-5.59v-2.22h-14.52v4.75h14.84c1.45,0,2.69,0.55,3.72,1.64
						c1.03,1.09,1.55,2.41,1.55,3.94v5.35c0,1.53-0.52,2.85-1.55,3.94c-1.03,1.09-2.27,1.64-3.72,1.64h-15.09
						c-1.45,0-2.69-0.54-3.72-1.62c-1.03-1.08-1.55-2.4-1.55-3.96v-2.53h5.52v2.23h14.52v-4.75h-14.77c-1.45,0-2.69-0.54-3.72-1.62
						c-1.03-1.08-1.55-2.4-1.55-3.96v-5.35c0-1.56,0.52-2.88,1.55-3.96c1.03-1.08,2.27-1.62,3.72-1.62h15.09
						c1.45,0,2.69,0.55,3.72,1.64C283.74,297.9,284.26,299.21,284.26,300.74z"/>
					<path class="st2" d="M304.41,300.44c1.42,0,2.64,0.54,3.65,1.62c1.01,1.08,1.51,2.36,1.51,3.85v16.4H293.8
						c-1.42,0-2.64-0.54-3.65-1.62c-1.01-1.08-1.51-2.36-1.51-3.85v-8.37h15.49v-2.26h-15.49v-5.77H304.41z M304.13,316.54v-3.02
						h-10.04v3.02H304.13z"/>
					<path class="st2" d="M318.29,300.44h11.39v5.77h-11.14v16.1h-5.45v-16.4c0-1.48,0.51-2.76,1.53-3.85
						C315.65,300.98,316.87,300.44,318.29,300.44z"/>
					<path class="st2" d="M349.02,300.44c1.42,0,2.64,0.54,3.65,1.62c1.01,1.08,1.51,2.36,1.51,3.85v16.4h-15.77
						c-1.42,0-2.64-0.54-3.65-1.62c-1.01-1.08-1.51-2.36-1.51-3.85v-8.37h15.49v-2.26h-15.49v-5.77H349.02z M348.73,316.54v-3.02
						h-10.04v3.02H348.73z"/>
					<path class="st2" d="M379.28,324.69c0,1.51-0.5,2.8-1.51,3.87c-1.01,1.07-2.22,1.6-3.65,1.6h-12.53v-5.81h12.25v-2.04h-10.32
						c-1.42,0-2.65-0.54-3.67-1.62c-1.02-1.08-1.53-2.36-1.53-3.85v-16.33h5.45v16.02h10.07v-16.02h5.45V324.69z"/>
				</g>
			</g>
		</g>
	</g>
</g>
</svg>
